<svg width="36" height="36" viewBox="0 0 36 36" fill="none" xmlns="http://www.w3.org/2000/svg">
<path d="M18.4393 7.93934C19.0251 7.35355 19.9749 7.35355 20.5607 7.93934L29.5607 16.9393C29.842 17.2206 30 17.6022 30 18C30 18.3978 29.842 18.7794 29.5607 19.0607L20.5607 28.0607C19.9749 28.6464 19.0251 28.6464 18.4393 28.0607C17.8536 27.4749 17.8536 26.5251 18.4393 25.9393L24.8787 19.5L7.5 19.5C6.67157 19.5 6 18.8284 6 18C6 17.1716 6.67157 16.5 7.5 16.5H24.8787L18.4393 10.0607C17.8536 9.47487 17.8536 8.52513 18.4393 7.93934Z" fill="#142251"/>
</svg>
