<svg width="36" height="36" viewBox="0 0 36 36" xmlns="http://www.w3.org/2000/svg">
<path d="M17.5607 7.93934C18.1464 8.52513 18.1464 9.47487 17.5607 10.0607L11.1213 16.5H28.5C29.3284 16.5 30 17.1716 30 18C30 18.8284 29.3284 19.5 28.5 19.5H11.1213L17.5607 25.9393C18.1464 26.5251 18.1464 27.4749 17.5607 28.0607C16.9749 28.6464 16.0251 28.6464 15.4393 28.0607L6.43934 19.0607C6.15804 18.7794 6 18.3978 6 18C6 17.6022 6.15804 17.2206 6.43934 16.9393L15.4393 7.93934C16.0251 7.35355 16.9749 7.35355 17.5607 7.93934Z"/>
</svg>
