<svg width="24" height="25" viewBox="0 0 24 25" xmlns="http://www.w3.org/2000/svg">
<path d="M12.0498 0C15.2465 0.00137966 18.2468 1.24615 20.5029 3.50488C22.7589 5.76342 24.0011 8.76526 24 11.958C23.9974 18.5452 18.6384 23.9055 12.0498 23.9082H12.0449C10.0452 23.9075 8.08017 23.406 6.33496 22.4541L0 24.1152L1.69531 17.9229C0.649682 16.1107 0.0997157 14.0552 0.100586 11.9492C0.103207 5.36066 5.46332 0.000175017 12.0498 0ZM7.81934 6.43066C7.62029 6.43077 7.29689 6.50512 7.02344 6.80371C6.74976 7.10264 5.97854 7.82537 5.97852 9.29492C5.97852 10.7642 7.04744 12.1838 7.19727 12.3838C7.34655 12.5832 9.30355 15.5992 12.2988 16.8926C13.011 17.2001 13.5674 17.3839 14.001 17.5215C14.7159 17.7486 15.3666 17.7165 15.8809 17.6396C16.4546 17.554 17.6476 16.9172 17.8965 16.2197C18.1452 15.5222 18.1449 14.9243 18.0703 14.7998C17.9956 14.6755 17.7971 14.6004 17.499 14.4512C17.2004 14.3017 15.7318 13.5792 15.458 13.4795C15.1845 13.38 14.9851 13.3302 14.7861 13.6289C14.5871 13.9278 14.015 14.6005 13.8408 14.7998C13.6667 14.999 13.4927 15.0244 13.1943 14.875C12.8958 14.7256 11.9335 14.4099 10.793 13.3926C9.90537 12.6008 9.306 11.6231 9.13184 11.3242C8.95776 11.0254 9.11325 10.8637 9.2627 10.7148C9.39703 10.581 9.56166 10.3657 9.71094 10.1914C9.86002 10.0173 9.91029 9.89238 10.0098 9.69336C10.1089 9.49429 10.0589 9.3202 9.98438 9.1709C9.90973 9.02143 9.31229 7.55099 9.06348 6.95312C8.82116 6.37143 8.57482 6.4506 8.3916 6.44141C8.21773 6.43269 8.01821 6.43066 7.81934 6.43066Z" />
</svg>
