<!-- <?xml version="1.0" encoding="UTF-8" standalone="no"?> -->
<svg
   width="1330"
   height="227"
   viewBox="0 0 1330 227"
   fill="none"
   version="1.1"
   id="svg22"
   sodipodi:docname="pins_draw.svg"
   inkscape:export-filename="pins002.png"
   inkscape:export-xdpi="96"
   inkscape:export-ydpi="96"
   xmlns:inkscape="http://www.inkscape.org/namespaces/inkscape"
   xmlns:sodipodi="http://sodipodi.sourceforge.net/DTD/sodipodi-0.dtd"
   xmlns="http://www.w3.org/2000/svg"
   xmlns:svg="http://www.w3.org/2000/svg">
  <sodipodi:namedview
     id="namedview22"
     pagecolor="#505050"
     bordercolor="#eeeeee"
     borderopacity="1"
     inkscape:showpageshadow="0"
     inkscape:pageopacity="0"
     inkscape:pagecheckerboard="0"
     inkscape:deskcolor="#505050">
    <inkscape:page
       x="0"
       y="0"
       width="1330"
       height="227"
       id="page2"
       margin="0"
       bleed="0" />
  </sodipodi:namedview>
  <circle
     cx="641.99902"
     cy="59.0005"
     r="4"
     fill="#142251"
     id="circle1" />
  <mask
     id="path-4-inside-1_0_2946"
     fill="#ffffff">
    <path
       fill-rule="evenodd"
       clip-rule="evenodd"
       d="m 660.813,34.1108 -9.9,-4.7952 -4.232,8.7387 c -0.007,0.0119 -0.012,0.024 -0.018,0.0361 -0.006,0.0121 -0.012,0.0243 -0.018,0.0365 l -0.184,0.3814 0.049,0.0241 c -0.343,1.5836 1.192,3.6726 3.686,4.8805 2.494,1.208 5.084,1.1175 6.114,-0.1339 l 0.05,0.0245 z"
       id="path2" />
  </mask>
  <circle
     cx="998.99902"
     cy="221"
     r="4"
     fill="#142251"
     id="circle5" />
  <mask
     id="path-13-inside-2_0_2946"
     fill="#ffffff">
    <path
       fill-rule="evenodd"
       clip-rule="evenodd"
       d="m 1017.81,196.111 -9.9,-4.795 -4.23,8.738 c -0.01,0.012 -0.01,0.024 -0.02,0.036 0,0.013 -0.01,0.025 -0.01,0.037 l -0.19,0.381 0.05,0.024 c -0.34,1.584 1.19,3.673 3.69,4.881 2.49,1.208 5.08,1.117 6.11,-0.134 l 0.05,0.024 z"
       id="path7" />
  </mask>
  <g
     id="pin3"
     style="display:inline">
    <ellipse
       cx="1008.5"
       cy="202.713"
       rx="11.5"
       ry="8"
       transform="rotate(25.8444,1008.5,202.713)"
       fill="#afb4c4"
       id="ellipse6" />
    <path
       d="m 1011.77,195.963 c 2.78,1.346 4.9,3.339 6.08,5.449 1.19,2.113 1.43,4.297 0.55,6.096 -0.87,1.8 -2.73,2.969 -5.12,3.347 -2.39,0.378 -5.27,-0.046 -8.05,-1.392 -2.77,-1.345 -4.89,-3.338 -6.075,-5.449 -1.186,-2.112 -1.422,-4.296 -0.551,-6.096 0.872,-1.8 2.736,-2.968 5.126,-3.347 2.39,-0.378 5.27,0.047 8.04,1.392 z"
       stroke="#142251"
       stroke-opacity="0.44"
       id="path6" />
    <path
       fill-rule="evenodd"
       clip-rule="evenodd"
       d="m 1017.81,196.111 -9.9,-4.795 -4.23,8.738 c -0.01,0.012 -0.01,0.024 -0.02,0.036 0,0.013 -0.01,0.025 -0.01,0.037 l -0.19,0.381 0.05,0.024 c -0.34,1.584 1.19,3.673 3.69,4.881 2.49,1.208 5.08,1.117 6.11,-0.134 l 0.05,0.024 z"
       fill="#afb4c4"
       id="path8" />
    <path
       d="m 1007.91,191.316 0.44,-0.9 -0.9,-0.436 -0.44,0.9 z m 9.9,4.795 0.9,0.436 0.44,-0.9 -0.9,-0.436 z m -14.13,3.943 0.89,0.455 0.01,-0.01 v -0.009 z m -0.03,0.073 0.9,0.436 v -0.009 -0.01 z m -0.19,0.381 -0.9,-0.436 -0.44,0.9 0.9,0.436 z m 0.05,0.024 0.98,0.212 0.16,-0.769 -0.7,-0.343 z m 9.8,4.747 0.44,-0.9 -0.71,-0.343 -0.5,0.608 z m 0.05,0.024 -0.44,0.9 0.9,0.436 0.44,-0.9 z m -5.88,-13.087 9.9,4.795 0.87,-1.8 -9.9,-4.795 z m -2.9,8.274 4.23,-8.738 -1.8,-0.872 -4.23,8.738 z m -0.02,0.036 c 0.01,-0.006 0.01,-0.012 0.01,-0.017 l -1.78,-0.909 c -0.01,0.018 -0.02,0.036 -0.03,0.054 z m -0.01,0.018 c 0.01,-0.006 0.01,-0.012 0.01,-0.018 l -1.8,-0.872 c -0.01,0.019 -0.01,0.037 -0.02,0.056 z m -0.19,0.4 0.19,-0.381 -1.8,-0.872 -0.19,0.381 z m -0.41,-1.312 -0.05,-0.024 -0.88,1.8 0.05,0.024 z m 3.68,4.881 c -1.12,-0.544 -2,-1.272 -2.54,-1.999 -0.56,-0.746 -0.69,-1.37 -0.6,-1.77 l -1.96,-0.424 c -0.25,1.184 0.21,2.397 0.96,3.393 0.76,1.016 1.9,1.936 3.27,2.6 z m 4.91,0.131 c -0.26,0.315 -0.83,0.601 -1.76,0.625 -0.91,0.023 -2.02,-0.212 -3.15,-0.756 l -0.87,1.8 c 1.37,0.664 2.8,0.988 4.07,0.955 1.24,-0.032 2.48,-0.418 3.25,-1.354 z m 1.26,-0.24 -0.05,-0.025 -0.88,1.8 0.05,0.024 z m 3.11,-8.729 -4.45,9.193 1.8,0.871 4.45,-9.192 z"
       fill="#142251"
       fill-opacity="0.44"
       mask="url(#path-13-inside-2_0_2946)"
       id="path9" />
    <ellipse
       cx="1015.26"
       cy="188.763"
       rx="9.5"
       ry="7.5"
       transform="rotate(25.8444,1015.26,188.763)"
       fill="#afb4c4"
       id="ellipse9" />
    <path
       d="m 1018.31,182.464 c 4.58,2.217 6.69,6.837 5.05,10.223 -1.64,3.386 -6.57,4.594 -11.15,2.376 -4.58,-2.217 -6.69,-6.837 -5.05,-10.223 1.64,-3.386 6.58,-4.594 11.15,-2.376 z"
       stroke="#142251"
       stroke-opacity="0.44"
       id="path10" />
    <ellipse
       cx="1012.55"
       cy="186.338"
       rx="4"
       ry="3.5"
       transform="rotate(25.8444,1012.55,186.338)"
       fill="#e4e7f1"
       id="ellipse10" />
    <rect
       x="1003.67"
       y="209.259"
       width="2"
       height="13"
       transform="rotate(25.8444,1003.67,209.259)"
       fill="#9da7ca"
       id="rect10" />
  </g>
  <circle
     cx="1300"
     cy="100"
     r="4"
     fill="#142251"
     id="circle10" />
  <mask
     id="path-22-inside-3_0_2946"
     fill="#ffffff">
    <path
       fill-rule="evenodd"
       clip-rule="evenodd"
       d="m 1318.81,75.1108 -9.9,-4.7952 -4.23,8.7387 c -0.01,0.0119 -0.01,0.024 -0.02,0.0361 0,0.0121 -0.01,0.0243 -0.01,0.0365 l -0.19,0.3814 0.05,0.0241 c -0.34,1.5836 1.19,3.6726 3.69,4.8805 2.49,1.208 5.08,1.1175 6.11,-0.1339 l 0.05,0.0245 z"
       id="path12" />
  </mask>
  <g
     id="pin4"
     style="display:inline">
    <ellipse
       cx="1309.5"
       cy="81.713303"
       rx="11.5"
       ry="8"
       transform="rotate(25.8444,1309.5,81.7133)"
       fill="#afb4c4"
       id="ellipse11" />
    <path
       d="m 1312.77,74.9634 c 2.78,1.3454 4.9,3.3385 6.08,5.4491 1.19,2.1123 1.43,4.2964 0.55,6.096 -0.87,1.7996 -2.73,2.9684 -5.12,3.3467 -2.39,0.3779 -5.27,-0.0467 -8.05,-1.3921 -2.77,-1.3454 -4.89,-3.3384 -6.07,-5.449 -1.19,-2.1124 -1.43,-4.2964 -0.56,-6.096 0.88,-1.7997 2.74,-2.9685 5.13,-3.3468 2.39,-0.3779 5.27,0.0467 8.04,1.3921 z"
       stroke="#142251"
       stroke-opacity="0.44"
       id="path11" />
    <path
       fill-rule="evenodd"
       clip-rule="evenodd"
       d="m 1318.81,75.1108 -9.9,-4.7952 -4.23,8.7387 c -0.01,0.0119 -0.01,0.024 -0.02,0.0361 0,0.0121 -0.01,0.0243 -0.01,0.0365 l -0.19,0.3814 0.05,0.0241 c -0.34,1.5836 1.19,3.6726 3.69,4.8805 2.49,1.208 5.08,1.1175 6.11,-0.1339 l 0.05,0.0245 z"
       fill="#afb4c4"
       id="path13" />
    <path
       d="m 1308.91,70.3156 0.44,-0.9 -0.9,-0.4359 -0.44,0.9 z m 9.9,4.7952 0.9,0.436 0.44,-0.9 -0.9,-0.436 z m -14.13,3.9435 0.89,0.4543 0.01,-0.0091 v -0.0093 z m -0.03,0.0726 0.9,0.4359 v -0.0092 -0.0094 z m -0.19,0.3814 -0.9,-0.436 -0.44,0.9 0.9,0.436 z m 0.05,0.0241 0.98,0.212 0.16,-0.769 -0.7,-0.343 z m 9.8,4.7466 0.44,-0.8999 -0.71,-0.3431 -0.5,0.6077 z m 0.05,0.0245 -0.44,0.9 0.9,0.4359 0.44,-0.9 z m -5.88,-13.0879 9.9,4.7952 0.87,-1.8 -9.9,-4.7952 z m -2.9,8.2746 4.23,-8.7387 -1.8,-0.8718 -4.23,8.7386 z m -0.02,0.0361 c 0.01,-0.0059 0.01,-0.0118 0.01,-0.0177 l -1.78,-0.9087 c -0.01,0.0181 -0.02,0.0363 -0.03,0.0546 z m -0.01,0.0179 c 0.01,-0.006 0.01,-0.0119 0.01,-0.0179 l -1.8,-0.8718 c -0.01,0.0183 -0.01,0.0367 -0.02,0.0551 z m -0.19,0.4 0.19,-0.3814 -1.8,-0.8718 -0.19,0.3813 z m -0.41,-1.3118 -0.05,-0.0241 -0.88,1.8 0.05,0.024 z m 3.68,4.8806 c -1.12,-0.5442 -2,-1.2725 -2.54,-1.9989 -0.56,-0.7464 -0.69,-1.3702 -0.6,-1.7697 l -1.96,-0.4241 c -0.25,1.1842 0.21,2.3968 0.96,3.3928 0.76,1.0159 1.9,1.9361 3.27,2.5998 z m 4.91,0.1307 c -0.26,0.3157 -0.83,0.6008 -1.76,0.6249 -0.91,0.0234 -2.02,-0.2115 -3.15,-0.7556 l -0.87,1.7999 c 1.37,0.6638 2.8,0.9877 4.07,0.955 1.24,-0.032 2.48,-0.4178 3.25,-1.3535 z m 1.26,-0.2402 -0.05,-0.0244 -0.88,1.7999 0.05,0.0245 z m 3.11,-8.7286 -4.45,9.1927 1.8,0.8718 4.45,-9.1926 z"
       fill="#142251"
       fill-opacity="0.44"
       mask="url(#path-22-inside-3_0_2946)"
       id="path14" />
    <ellipse
       cx="1316.26"
       cy="67.763496"
       rx="9.5"
       ry="7.5"
       transform="rotate(25.8444,1316.26,67.7635)"
       fill="#afb4c4"
       id="ellipse14" />
    <path
       d="m 1319.31,61.4636 c 4.58,2.2177 6.69,6.8373 5.05,10.2233 -1.64,3.3859 -6.57,4.5941 -11.15,2.3765 -4.58,-2.2177 -6.69,-6.8373 -5.05,-10.2233 1.64,-3.386 6.58,-4.5941 11.15,-2.3765 z"
       stroke="#142251"
       stroke-opacity="0.44"
       id="path15" />
    <ellipse
       cx="1313.55"
       cy="65.3377"
       rx="4"
       ry="3.5"
       transform="rotate(25.8444,1313.55,65.3377)"
       fill="#e4e7f1"
       id="ellipse15" />
    <rect
       x="1304.67"
       y="88.259003"
       width="2"
       height="13"
       transform="rotate(25.8444,1304.67,88.259)"
       fill="#9da7ca"
       id="rect15" />
  </g>
  <g
     opacity="0.44"
     id="g17">
    <path
       d="m 9.99931,45.0005 631.99969,15.5 356,161.0005"
       stroke="#142251"
       id="path16" />
    <path
       d="M 998.499,221.5 1300,100"
       stroke="#142251"
       id="path17" />
  </g>
  <g
     id="pin2"
     style="display:inline">
    <ellipse
       cx="651.50403"
       cy="40.713299"
       rx="11.5"
       ry="8"
       transform="rotate(25.8444,651.504,40.7133)"
       fill="#afb4c4"
       id="ellipse1" />
    <path
       d="m 654.774,33.9634 c 2.777,1.3454 4.893,3.3385 6.079,5.4491 1.187,2.1123 1.423,4.2964 0.551,6.096 -0.872,1.7996 -2.732,2.9684 -5.125,3.3467 -2.391,0.3779 -5.267,-0.0467 -8.044,-1.3921 -2.778,-1.3454 -4.894,-3.3384 -6.08,-5.449 -1.186,-2.1124 -1.422,-4.2964 -0.551,-6.096 0.872,-1.7997 2.732,-2.9685 5.125,-3.3468 2.392,-0.3779 5.267,0.0467 8.045,1.3921 z"
       stroke="#142251"
       stroke-opacity="0.44"
       id="path1" />
    <path
       fill-rule="evenodd"
       clip-rule="evenodd"
       d="m 660.813,34.1108 -9.9,-4.7952 -4.232,8.7387 c -0.007,0.0119 -0.012,0.024 -0.018,0.0361 -0.006,0.0121 -0.012,0.0243 -0.018,0.0365 l -0.184,0.3814 0.049,0.0241 c -0.343,1.5836 1.192,3.6726 3.686,4.8805 2.494,1.208 5.084,1.1175 6.114,-0.1339 l 0.05,0.0245 z"
       fill="#afb4c4"
       id="path3" />
    <path
       d="m 650.913,29.3156 0.436,-0.9 -0.9,-0.4359 -0.436,0.9 z m 9.9,4.7952 0.9,0.436 0.436,-0.9 -0.9,-0.436 z m -14.132,3.9435 0.89,0.4543 0.005,-0.0091 0.005,-0.0093 z m -0.036,0.0726 0.9,0.4359 0.005,-0.0092 0.004,-0.0094 z m -0.184,0.3814 -0.9,-0.436 -0.436,0.9 0.9,0.436 z m 0.049,0.0241 0.978,0.212 0.167,-0.769 -0.709,-0.343 z m 9.8,4.7466 0.436,-0.8999 -0.708,-0.3431 -0.5,0.6077 z m 0.05,0.0245 -0.435,0.9 0.9,0.4359 0.435,-0.9 z m -5.883,-13.0879 9.9,4.7952 0.872,-1.8 -9.9,-4.7952 z m -2.896,8.2746 4.232,-8.7387 -1.8,-0.8718 -4.232,8.7386 z m -0.018,0.0361 c 0.002,-0.0059 0.005,-0.0118 0.008,-0.0177 l -1.781,-0.9087 c -0.009,0.0181 -0.018,0.0363 -0.027,0.0546 z m -0.009,0.0179 c 0.003,-0.006 0.006,-0.0119 0.009,-0.0179 l -1.8,-0.8718 c -0.009,0.0183 -0.018,0.0367 -0.026,0.0551 z m -0.193,0.4 0.184,-0.3814 -1.8,-0.8718 -0.184,0.3813 z m -0.415,-1.3118 -0.049,-0.0241 -0.872,1.8 0.049,0.024 z m 3.686,4.8806 c -1.124,-0.5442 -1.998,-1.2725 -2.543,-1.9989 -0.559,-0.7464 -0.688,-1.3702 -0.601,-1.7697 l -1.955,-0.4241 c -0.257,1.1842 0.21,2.3968 0.956,3.3928 0.761,1.0159 1.901,1.9361 3.271,2.5998 z m 4.906,0.1307 c -0.26,0.3157 -0.83,0.6008 -1.762,0.6249 -0.907,0.0234 -2.021,-0.2115 -3.144,-0.7556 l -0.872,1.7999 c 1.37,0.6638 2.799,0.9877 4.068,0.955 1.244,-0.032 2.484,-0.4178 3.254,-1.3535 z m 1.258,-0.2402 -0.05,-0.0244 -0.872,1.7999 0.051,0.0245 z m 3.117,-8.7286 -4.453,9.1927 1.8,0.8718 4.453,-9.1926 z"
       fill="#142251"
       fill-opacity="0.44"
       mask="url(#path-4-inside-1_0_2946)"
       id="path4" />
    <ellipse
       cx="658.26202"
       cy="26.7635"
       rx="9.5"
       ry="7.5"
       transform="rotate(25.8444,658.262,26.7635)"
       fill="#afb4c4"
       id="ellipse4" />
    <path
       d="m 661.314,20.4636 c 4.578,2.2177 6.688,6.8373 5.048,10.2233 -1.64,3.3859 -6.573,4.5941 -11.151,2.3765 -4.579,-2.2177 -6.689,-6.8373 -5.049,-10.2233 1.64,-3.386 6.573,-4.5941 11.152,-2.3765 z"
       stroke="#142251"
       stroke-opacity="0.44"
       id="path5" />
    <ellipse
       cx="655.54797"
       cy="24.3377"
       rx="4"
       ry="3.5"
       transform="rotate(25.8444,655.548,24.3377)"
       fill="#e4e7f1"
       id="ellipse5" />
    <rect
       x="646.66699"
       y="47.258999"
       width="2"
       height="13"
       transform="rotate(25.8444,646.667,47.259)"
       fill="#9da7ca"
       id="rect5" />
  </g>
   <circle
       cx="9.9993095"
       cy="44.0005"
       r="4"
       fill="#142251"
       id="circle17" />
  <mask
     id="path-33-inside-4_0_2946"
     fill="#ffffff">
    <path
       fill-rule="evenodd"
       clip-rule="evenodd"
       d="m 28.8132,19.1108 -9.8998,-4.7952 -4.2328,8.7387 c -0.0061,0.0119 -0.0121,0.024 -0.018,0.0361 -0.0058,0.0121 -0.0116,0.0243 -0.0172,0.0365 l -0.1847,0.3814 0.0497,0.0241 c -0.3436,1.5836 1.1916,3.6726 3.6854,4.8805 2.4937,1.208 5.0846,1.1175 6.1142,-0.1339 l 0.0505,0.0245 z"
       id="path19" />
  </mask>
  <g
     id="pin1"
     style="display:inline">
    <ellipse
       cx="19.5042"
       cy="25.713301"
       rx="11.5"
       ry="8"
       transform="rotate(25.8444,19.5042,25.7133)"
       fill="#afb4c4"
       id="ellipse17" />
    <path
       d="m 22.7736,18.9634 c 2.7776,1.3454 4.8934,3.3385 6.0794,5.4491 1.1867,2.1123 1.4227,4.2964 0.551,6.096 -0.8717,1.7996 -2.7317,2.9684 -5.1249,3.3467 -2.3913,0.3779 -5.2668,-0.0467 -8.0444,-1.3921 -2.7776,-1.3454 -4.8934,-3.3384 -6.0793,-5.449 -1.18677,-2.1124 -1.42272,-4.2964 -0.55102,-6.096 0.87172,-1.7997 2.73162,-2.9685 5.12482,-3.3468 2.3913,-0.3779 5.2668,0.0467 8.0444,1.3921 z"
       stroke="#142251"
       stroke-opacity="0.44"
       id="path18" />
    <path
       fill-rule="evenodd"
       clip-rule="evenodd"
       d="m 28.8132,19.1108 -9.8998,-4.7952 -4.2328,8.7387 c -0.0061,0.0119 -0.0121,0.024 -0.018,0.0361 -0.0058,0.0121 -0.0116,0.0243 -0.0172,0.0365 l -0.1847,0.3814 0.0497,0.0241 c -0.3436,1.5836 1.1916,3.6726 3.6854,4.8805 2.4937,1.208 5.0846,1.1175 6.1142,-0.1339 l 0.0505,0.0245 z"
       fill="#afb4c4"
       id="path20" />
    <path
       d="m 18.9134,14.3156 0.4359,-0.9 -0.9,-0.4359 -0.4359,0.9 z m 9.8998,4.7952 0.9,0.436 0.4359,-0.9 -0.9,-0.436 z m -14.1326,3.9435 0.8908,0.4543 0.0047,-0.0091 0.0045,-0.0093 z m -0.0352,0.0726 0.9,0.4359 0.0045,-0.0092 0.0043,-0.0094 z m -0.1847,0.3814 -0.9,-0.436 -0.4359,0.9 0.9,0.436 z m 0.0497,0.0241 0.9773,0.212 0.1668,-0.769 -0.7082,-0.343 z m 9.7996,4.7466 0.4359,-0.8999 -0.7081,-0.3431 -0.5,0.6077 z m 0.0505,0.0245 -0.4359,0.9 0.8999,0.4359 0.436,-0.9 z m -5.883,-13.0879 9.8997,4.7952 0.8719,-1.8 -9.8998,-4.7952 z m -2.8969,8.2746 4.2328,-8.7387 -1.8,-0.8718 -4.2328,8.7386 z m -0.018,0.0361 c 0.0029,-0.0059 0.0058,-0.0118 0.0088,-0.0177 l -1.7816,-0.9087 c -0.0092,0.0181 -0.0183,0.0363 -0.0271,0.0546 z m -0.0084,0.0179 c 0.0027,-0.006 0.0055,-0.0119 0.0084,-0.0179 l -1.7999,-0.8718 c -0.0089,0.0183 -0.0176,0.0367 -0.0261,0.0551 z m -0.1935,0.4 0.1847,-0.3814 -1.8,-0.8718 -0.1847,0.3813 z m -0.4144,-1.3118 -0.0497,-0.0241 -0.8718,1.8 0.0497,0.024 z m 3.6854,4.8806 c -1.1235,-0.5442 -1.9981,-1.2725 -2.5423,-1.9989 -0.559,-0.7464 -0.6884,-1.3702 -0.6017,-1.7697 l -1.9546,-0.4241 c -0.2569,1.1842 0.2095,2.3968 0.9556,3.3928 0.761,1.0159 1.9008,1.9361 3.2711,2.5998 z m 4.9061,0.1307 c -0.2598,0.3157 -0.8294,0.6008 -1.7616,0.6249 -0.9074,0.0234 -2.0211,-0.2115 -3.1445,-0.7556 l -0.8719,1.7999 c 1.3703,0.6638 2.799,0.9877 4.0679,0.955 1.244,-0.032 2.4847,-0.4178 3.2545,-1.3535 z m 1.2586,-0.2402 -0.0505,-0.0244 -0.8718,1.7999 0.0505,0.0245 z m 3.1168,-8.7286 -4.4527,9.1927 1.8,0.8718 4.4527,-9.1926 z"
       fill="#142251"
       fill-opacity="0.44"
       mask="url(#path-33-inside-4_0_2946)"
       id="path21" />
    <ellipse
       cx="26.261999"
       cy="11.7635"
       rx="9.5"
       ry="7.5"
       transform="rotate(25.8444,26.262,11.7635)"
       fill="#afb4c4"
       id="ellipse21" />
    <path
       d="m 29.3135,5.46363 c 4.5784,2.21764 6.6885,6.83727 5.0484,10.22327 -1.6401,3.3859 -6.573,4.5941 -11.1514,2.3765 -4.5783,-2.2177 -6.6884,-6.8373 -5.0483,-10.22326 1.6401,-3.38599 6.573,-4.59416 11.1513,-2.37651 z"
       stroke="#142251"
       stroke-opacity="0.44"
       id="path22" />
    <g
       filter="url(#filter0_f_0_2946)"
       id="g22">
      <ellipse
         cx="23.548"
         cy="9.3377399"
         rx="4"
         ry="3.5"
         transform="rotate(25.8444,23.548,9.33774)"
         fill="#e4e7f1"
         id="ellipse22" />
    </g>
    <rect
       x="14.6672"
       y="32.258999"
       width="2"
       height="13"
       transform="rotate(25.8444,14.6672,32.259)"
       fill="#9da7ca"
       id="rect22" />
  </g>
  <defs
     id="defs22">
    <filter
       id="filter0_f_0_2946"
       x="15.6371"
       y="1.73682"
       width="15.8218"
       height="15.2019"
       filterUnits="userSpaceOnUse"
       color-interpolation-filters="sRGB">
      <feFlood
         flood-opacity="0"
         result="BackgroundImageFix"
         id="feFlood22" />
      <feBlend
         mode="normal"
         in="SourceGraphic"
         in2="BackgroundImageFix"
         result="shape"
         id="feBlend22" />
      <feGaussianBlur
         stdDeviation="2"
         result="effect1_foregroundBlur_0_2946"
         id="feGaussianBlur22" />
    </filter>
  </defs>
</svg>
